<svg id="Capa_1" enable-background="new 0 0 512 512" height="512" viewBox="0 0 512 512" width="512" xmlns="http://www.w3.org/2000/svg"><g><path d="m181 0h150v59.578h-150z"/><path d="m146 278.578h30v30h-30z"/><path d="m361 29.578v60h-210v-60c-12.992 0-74.941 0-95 0v482.422h400v-482.422c-3.323 0-81.413 0-95 0zm-245 95h90v90h-90zm0 124h90v90h-90zm33 209.213-40.606-40.606 21.213-21.213 19.393 19.393 44.394-44.393 21.213 21.213zm247-27.213h-140v-30h140zm0-122h-140v-30h140zm0-124h-140v-30h140z"/><path d="m146 154.578h30v30h-30z"/></g></svg>